<svg xmlns="http://www.w3.org/2000/svg" xmlns:xlink="http://www.w3.org/1999/xlink" width="2000" zoomAndPan="magnify" viewBox="0 0 1500 1499.999933" height="2000" preserveAspectRatio="xMidYMid meet" version="1.0"><defs><g/><clipPath id="38f9013275"><path d="M 111.347656 111.347656 L 1388.652344 111.347656 L 1388.652344 1388.652344 L 111.347656 1388.652344 Z M 111.347656 111.347656 " clip-rule="nonzero"/></clipPath><clipPath id="c907538cdd"><path d="M 750 111.347656 C 397.28125 111.347656 111.347656 397.28125 111.347656 750 C 111.347656 1102.71875 397.28125 1388.652344 750 1388.652344 C 1102.71875 1388.652344 1388.652344 1102.71875 1388.652344 750 C 1388.652344 397.28125 1102.71875 111.347656 750 111.347656 Z M 750 111.347656 " clip-rule="nonzero"/></clipPath><clipPath id="520b2fecc8"><path d="M 0.347656 0.347656 L 1277.652344 0.347656 L 1277.652344 1277.652344 L 0.347656 1277.652344 Z M 0.347656 0.347656 " clip-rule="nonzero"/></clipPath><clipPath id="47ad07b6cb"><path d="M 639 0.347656 C 286.28125 0.347656 0.347656 286.28125 0.347656 639 C 0.347656 991.71875 286.28125 1277.652344 639 1277.652344 C 991.71875 1277.652344 1277.652344 991.71875 1277.652344 639 C 1277.652344 286.28125 991.71875 0.347656 639 0.347656 Z M 639 0.347656 " clip-rule="nonzero"/></clipPath><clipPath id="9458978e3a"><rect x="0" width="1278" y="0" height="1278"/></clipPath><clipPath id="b56cbf5a09"><path d="M 570.519531 696.300781 L 617.492188 696.300781 L 617.492188 743.277344 L 570.519531 743.277344 Z M 570.519531 696.300781 " clip-rule="nonzero"/></clipPath><clipPath id="bb72740270"><path d="M 594.007812 696.300781 C 581.035156 696.300781 570.519531 706.816406 570.519531 719.789062 C 570.519531 732.761719 581.035156 743.277344 594.007812 743.277344 C 606.976562 743.277344 617.492188 732.761719 617.492188 719.789062 C 617.492188 706.816406 606.976562 696.300781 594.007812 696.300781 Z M 594.007812 696.300781 " clip-rule="nonzero"/></clipPath><clipPath id="4534600872"><path d="M 0.519531 0.300781 L 47.492188 0.300781 L 47.492188 47.277344 L 0.519531 47.277344 Z M 0.519531 0.300781 " clip-rule="nonzero"/></clipPath><clipPath id="b8402671c5"><path d="M 24.007812 0.300781 C 11.035156 0.300781 0.519531 10.816406 0.519531 23.789062 C 0.519531 36.761719 11.035156 47.277344 24.007812 47.277344 C 36.976562 47.277344 47.492188 36.761719 47.492188 23.789062 C 47.492188 10.816406 36.976562 0.300781 24.007812 0.300781 Z M 24.007812 0.300781 " clip-rule="nonzero"/></clipPath><clipPath id="0f1e008a28"><rect x="0" width="48" y="0" height="48"/></clipPath><clipPath id="0d3c16872b"><path d="M 878.769531 696.300781 L 925.742188 696.300781 L 925.742188 743.277344 L 878.769531 743.277344 Z M 878.769531 696.300781 " clip-rule="nonzero"/></clipPath><clipPath id="c2ec64743e"><path d="M 902.257812 696.300781 C 889.285156 696.300781 878.769531 706.816406 878.769531 719.789062 C 878.769531 732.761719 889.285156 743.277344 902.257812 743.277344 C 915.226562 743.277344 925.742188 732.761719 925.742188 719.789062 C 925.742188 706.816406 915.226562 696.300781 902.257812 696.300781 Z M 902.257812 696.300781 " clip-rule="nonzero"/></clipPath><clipPath id="18d5cf424b"><path d="M 0.769531 0.300781 L 47.742188 0.300781 L 47.742188 47.277344 L 0.769531 47.277344 Z M 0.769531 0.300781 " clip-rule="nonzero"/></clipPath><clipPath id="ca16dcbe92"><path d="M 24.257812 0.300781 C 11.285156 0.300781 0.769531 10.816406 0.769531 23.789062 C 0.769531 36.761719 11.285156 47.277344 24.257812 47.277344 C 37.226562 47.277344 47.742188 36.761719 47.742188 23.789062 C 47.742188 10.816406 37.226562 0.300781 24.257812 0.300781 Z M 24.257812 0.300781 " clip-rule="nonzero"/></clipPath><clipPath id="53ce0e596f"><rect x="0" width="48" y="0" height="48"/></clipPath><clipPath id="a3c6e8a020"><path d="M 634.269531 653.988281 L 681.242188 653.988281 L 681.242188 700.964844 L 634.269531 700.964844 Z M 634.269531 653.988281 " clip-rule="nonzero"/></clipPath><clipPath id="ccfcda289b"><path d="M 657.757812 653.988281 C 644.785156 653.988281 634.269531 664.503906 634.269531 677.476562 C 634.269531 690.449219 644.785156 700.964844 657.757812 700.964844 C 670.726562 700.964844 681.242188 690.449219 681.242188 677.476562 C 681.242188 664.503906 670.726562 653.988281 657.757812 653.988281 Z M 657.757812 653.988281 " clip-rule="nonzero"/></clipPath><clipPath id="6b2ed4f8a0"><path d="M 0.269531 0.988281 L 47.242188 0.988281 L 47.242188 47.964844 L 0.269531 47.964844 Z M 0.269531 0.988281 " clip-rule="nonzero"/></clipPath><clipPath id="a4d1986bd5"><path d="M 23.757812 0.988281 C 10.785156 0.988281 0.269531 11.503906 0.269531 24.476562 C 0.269531 37.449219 10.785156 47.964844 23.757812 47.964844 C 36.726562 47.964844 47.242188 37.449219 47.242188 24.476562 C 47.242188 11.503906 36.726562 0.988281 23.757812 0.988281 Z M 23.757812 0.988281 " clip-rule="nonzero"/></clipPath><clipPath id="357d2defbc"><rect x="0" width="48" y="0" height="48"/></clipPath><clipPath id="68ecc48107"><path d="M 818.769531 653.988281 L 865.742188 653.988281 L 865.742188 700.964844 L 818.769531 700.964844 Z M 818.769531 653.988281 " clip-rule="nonzero"/></clipPath><clipPath id="ac5ab5843e"><path d="M 842.257812 653.988281 C 829.285156 653.988281 818.769531 664.503906 818.769531 677.476562 C 818.769531 690.449219 829.285156 700.964844 842.257812 700.964844 C 855.226562 700.964844 865.742188 690.449219 865.742188 677.476562 C 865.742188 664.503906 855.226562 653.988281 842.257812 653.988281 Z M 842.257812 653.988281 " clip-rule="nonzero"/></clipPath><clipPath id="16540bc393"><path d="M 0.769531 0.988281 L 47.742188 0.988281 L 47.742188 47.964844 L 0.769531 47.964844 Z M 0.769531 0.988281 " clip-rule="nonzero"/></clipPath><clipPath id="23e7d69e76"><path d="M 24.257812 0.988281 C 11.285156 0.988281 0.769531 11.503906 0.769531 24.476562 C 0.769531 37.449219 11.285156 47.964844 24.257812 47.964844 C 37.226562 47.964844 47.742188 37.449219 47.742188 24.476562 C 47.742188 11.503906 37.226562 0.988281 24.257812 0.988281 Z M 24.257812 0.988281 " clip-rule="nonzero"/></clipPath><clipPath id="3abc3d4d80"><rect x="0" width="48" y="0" height="48"/></clipPath><clipPath id="3446ad0e63"><path d="M 589.109375 848.203125 L 636.082031 848.203125 L 636.082031 895.175781 L 589.109375 895.175781 Z M 589.109375 848.203125 " clip-rule="nonzero"/></clipPath><clipPath id="e85f4578b6"><path d="M 612.597656 848.203125 C 599.625 848.203125 589.109375 858.71875 589.109375 871.6875 C 589.109375 884.660156 599.625 895.175781 612.597656 895.175781 C 625.566406 895.175781 636.082031 884.660156 636.082031 871.6875 C 636.082031 858.71875 625.566406 848.203125 612.597656 848.203125 Z M 612.597656 848.203125 " clip-rule="nonzero"/></clipPath><clipPath id="fe49d4b5bd"><path d="M 0.109375 0.203125 L 47.082031 0.203125 L 47.082031 47.175781 L 0.109375 47.175781 Z M 0.109375 0.203125 " clip-rule="nonzero"/></clipPath><clipPath id="44e81626cb"><path d="M 23.597656 0.203125 C 10.625 0.203125 0.109375 10.71875 0.109375 23.6875 C 0.109375 36.660156 10.625 47.175781 23.597656 47.175781 C 36.566406 47.175781 47.082031 36.660156 47.082031 23.6875 C 47.082031 10.71875 36.566406 0.203125 23.597656 0.203125 Z M 23.597656 0.203125 " clip-rule="nonzero"/></clipPath><clipPath id="13571922fa"><rect x="0" width="48" y="0" height="48"/></clipPath><clipPath id="85a1a5754a"><path d="M 863.492188 848.203125 L 910.46875 848.203125 L 910.46875 895.175781 L 863.492188 895.175781 Z M 863.492188 848.203125 " clip-rule="nonzero"/></clipPath><clipPath id="1368c2676c"><path d="M 886.980469 848.203125 C 874.007812 848.203125 863.492188 858.71875 863.492188 871.6875 C 863.492188 884.660156 874.007812 895.175781 886.980469 895.175781 C 899.953125 895.175781 910.46875 884.660156 910.46875 871.6875 C 910.46875 858.71875 899.953125 848.203125 886.980469 848.203125 Z M 886.980469 848.203125 " clip-rule="nonzero"/></clipPath><clipPath id="37dece58e4"><path d="M 0.492188 0.203125 L 47.46875 0.203125 L 47.46875 47.175781 L 0.492188 47.175781 Z M 0.492188 0.203125 " clip-rule="nonzero"/></clipPath><clipPath id="489b3e4924"><path d="M 23.980469 0.203125 C 11.007812 0.203125 0.492188 10.71875 0.492188 23.6875 C 0.492188 36.660156 11.007812 47.175781 23.980469 47.175781 C 36.953125 47.175781 47.46875 36.660156 47.46875 23.6875 C 47.46875 10.71875 36.953125 0.203125 23.980469 0.203125 Z M 23.980469 0.203125 " clip-rule="nonzero"/></clipPath><clipPath id="88d38fcfbc"><rect x="0" width="48" y="0" height="48"/></clipPath><clipPath id="44f6f77bcb"><path d="M 724.644531 682.726562 L 771.617188 682.726562 L 771.617188 729.703125 L 724.644531 729.703125 Z M 724.644531 682.726562 " clip-rule="nonzero"/></clipPath><clipPath id="9c480710c9"><path d="M 748.132812 682.726562 C 735.160156 682.726562 724.644531 693.242188 724.644531 706.214844 C 724.644531 719.1875 735.160156 729.703125 748.132812 729.703125 C 761.101562 729.703125 771.617188 719.1875 771.617188 706.214844 C 771.617188 693.242188 761.101562 682.726562 748.132812 682.726562 Z M 748.132812 682.726562 " clip-rule="nonzero"/></clipPath><clipPath id="9748f5d40e"><path d="M 0.644531 0.726562 L 47.617188 0.726562 L 47.617188 47.703125 L 0.644531 47.703125 Z M 0.644531 0.726562 " clip-rule="nonzero"/></clipPath><clipPath id="a298b35146"><path d="M 24.132812 0.726562 C 11.160156 0.726562 0.644531 11.242188 0.644531 24.214844 C 0.644531 37.1875 11.160156 47.703125 24.132812 47.703125 C 37.101562 47.703125 47.617188 37.1875 47.617188 24.214844 C 47.617188 11.242188 37.101562 0.726562 24.132812 0.726562 Z M 24.132812 0.726562 " clip-rule="nonzero"/></clipPath><clipPath id="8f97ddbfc8"><rect x="0" width="48" y="0" height="48"/></clipPath><clipPath id="863b12fe85"><path d="M 599.191406 364.671875 L 677.710938 364.671875 L 677.710938 443.191406 L 599.191406 443.191406 Z M 599.191406 364.671875 " clip-rule="nonzero"/></clipPath><clipPath id="6a7882f60a"><path d="M 638.449219 364.671875 C 616.769531 364.671875 599.191406 382.25 599.191406 403.933594 C 599.191406 425.613281 616.769531 443.191406 638.449219 443.191406 C 660.132812 443.191406 677.710938 425.613281 677.710938 403.933594 C 677.710938 382.25 660.132812 364.671875 638.449219 364.671875 Z M 638.449219 364.671875 " clip-rule="nonzero"/></clipPath><clipPath id="bfc9b23006"><path d="M 0.191406 0.671875 L 78.710938 0.671875 L 78.710938 79.191406 L 0.191406 79.191406 Z M 0.191406 0.671875 " clip-rule="nonzero"/></clipPath><clipPath id="463d3f6708"><path d="M 39.449219 0.671875 C 17.769531 0.671875 0.191406 18.25 0.191406 39.933594 C 0.191406 61.613281 17.769531 79.191406 39.449219 79.191406 C 61.132812 79.191406 78.710938 61.613281 78.710938 39.933594 C 78.710938 18.25 61.132812 0.671875 39.449219 0.671875 Z M 39.449219 0.671875 " clip-rule="nonzero"/></clipPath><clipPath id="e759464216"><rect x="0" width="79" y="0" height="80"/></clipPath><clipPath id="1426350578"><path d="M 819.347656 364.671875 L 897.867188 364.671875 L 897.867188 443.191406 L 819.347656 443.191406 Z M 819.347656 364.671875 " clip-rule="nonzero"/></clipPath><clipPath id="b9df9c5abe"><path d="M 858.609375 364.671875 C 836.925781 364.671875 819.347656 382.25 819.347656 403.933594 C 819.347656 425.613281 836.925781 443.191406 858.609375 443.191406 C 880.289062 443.191406 897.867188 425.613281 897.867188 403.933594 C 897.867188 382.25 880.289062 364.671875 858.609375 364.671875 Z M 858.609375 364.671875 " clip-rule="nonzero"/></clipPath><clipPath id="ae19711d49"><path d="M 0.347656 0.671875 L 78.867188 0.671875 L 78.867188 79.191406 L 0.347656 79.191406 Z M 0.347656 0.671875 " clip-rule="nonzero"/></clipPath><clipPath id="d3b015cf37"><path d="M 39.609375 0.671875 C 17.925781 0.671875 0.347656 18.25 0.347656 39.933594 C 0.347656 61.613281 17.925781 79.191406 39.609375 79.191406 C 61.289062 79.191406 78.867188 61.613281 78.867188 39.933594 C 78.867188 18.25 61.289062 0.671875 39.609375 0.671875 Z M 39.609375 0.671875 " clip-rule="nonzero"/></clipPath><clipPath id="99ebc9c675"><rect x="0" width="79" y="0" height="80"/></clipPath><clipPath id="65b4de7943"><path d="M 683.429688 730.882812 L 709.691406 730.882812 L 709.691406 779.503906 L 683.429688 779.503906 Z M 683.429688 730.882812 " clip-rule="nonzero"/></clipPath><clipPath id="a58ea9b66a"><path d="M 696.558594 730.882812 C 689.308594 730.882812 683.429688 741.753906 683.429688 755.164062 C 683.429688 768.570312 689.308594 779.441406 696.558594 779.441406 C 703.8125 779.441406 709.691406 768.570312 709.691406 755.164062 C 709.691406 741.753906 703.8125 730.882812 696.558594 730.882812 Z M 696.558594 730.882812 " clip-rule="nonzero"/></clipPath><clipPath id="08dd26c6a9"><path d="M 0.429688 0.882812 L 26.691406 0.882812 L 26.691406 49.503906 L 0.429688 49.503906 Z M 0.429688 0.882812 " clip-rule="nonzero"/></clipPath><clipPath id="57914f9ca0"><path d="M 13.558594 0.882812 C 6.308594 0.882812 0.429688 11.753906 0.429688 25.164062 C 0.429688 38.570312 6.308594 49.441406 13.558594 49.441406 C 20.8125 49.441406 26.691406 38.570312 26.691406 25.164062 C 26.691406 11.753906 20.8125 0.882812 13.558594 0.882812 Z M 13.558594 0.882812 " clip-rule="nonzero"/></clipPath><clipPath id="f36968cbd5"><rect x="0" width="27" y="0" height="50"/></clipPath><clipPath id="e29d3e0a77"><path d="M 786.574219 730.882812 L 812.832031 730.882812 L 812.832031 779.503906 L 786.574219 779.503906 Z M 786.574219 730.882812 " clip-rule="nonzero"/></clipPath><clipPath id="a5e281e971"><path d="M 799.703125 730.882812 C 792.449219 730.882812 786.574219 741.753906 786.574219 755.164062 C 786.574219 768.570312 792.449219 779.441406 799.703125 779.441406 C 806.953125 779.441406 812.832031 768.570312 812.832031 755.164062 C 812.832031 741.753906 806.953125 730.882812 799.703125 730.882812 Z M 799.703125 730.882812 " clip-rule="nonzero"/></clipPath><clipPath id="e047c1f80b"><path d="M 0.574219 0.882812 L 26.832031 0.882812 L 26.832031 49.503906 L 0.574219 49.503906 Z M 0.574219 0.882812 " clip-rule="nonzero"/></clipPath><clipPath id="b10e53209f"><path d="M 13.703125 0.882812 C 6.449219 0.882812 0.574219 11.753906 0.574219 25.164062 C 0.574219 38.570312 6.449219 49.441406 13.703125 49.441406 C 20.953125 49.441406 26.832031 38.570312 26.832031 25.164062 C 26.832031 11.753906 20.953125 0.882812 13.703125 0.882812 Z M 13.703125 0.882812 " clip-rule="nonzero"/></clipPath><clipPath id="3d2f04332e"><rect x="0" width="27" y="0" height="50"/></clipPath></defs><g clip-path="url(#38f9013275)"><g clip-path="url(#c907538cdd)"><g transform="matrix(1, 0, 0, 1, 111, 111)"><g clip-path="url(#9458978e3a)"><g clip-path="url(#520b2fecc8)"><g clip-path="url(#47ad07b6cb)"><path fill="#000000" d="M 0.347656 0.347656 L 1277.652344 0.347656 L 1277.652344 1277.652344 L 0.347656 1277.652344 Z M 0.347656 0.347656 " fill-opacity="1" fill-rule="nonzero"/></g></g></g></g></g></g><g fill="#ffffff" fill-opacity="1"><g transform="translate(909.953211, 950.106354)"><g><path d="M -66.140625 -194.140625 C -66.140625 -205.296875 -67.820312 -216.125 -71.1875 -226.625 C -74.5625 -237.132812 -77.804688 -244.851562 -80.921875 -249.78125 L -85.984375 -257.171875 L -23.734375 -288.296875 C -22.953125 -287.253906 -21.910156 -285.828125 -20.609375 -284.015625 C -19.316406 -282.203125 -16.921875 -277.988281 -13.421875 -271.375 C -9.921875 -264.757812 -6.875 -257.691406 -4.28125 -250.171875 C -1.6875 -242.648438 0.644531 -232.789062 2.71875 -220.59375 C 4.789062 -208.40625 5.828125 -195.828125 5.828125 -182.859375 C 5.828125 -153.023438 -1.492188 -124.75 -16.140625 -98.03125 C -30.796875 -71.320312 -50.960938 -49.796875 -76.640625 -33.453125 C -102.316406 -17.117188 -130.070312 -8.953125 -159.90625 -8.953125 C -182.46875 -8.953125 -204.125 -13.75 -224.875 -23.34375 C -245.625 -32.9375 -263.390625 -45.707031 -278.171875 -61.65625 C -292.960938 -77.613281 -304.765625 -96.226562 -313.578125 -117.5 C -322.398438 -138.769531 -326.8125 -160.554688 -326.8125 -182.859375 C -326.8125 -203.609375 -324.347656 -222.734375 -319.421875 -240.234375 C -314.492188 -257.742188 -309.566406 -270.132812 -304.640625 -277.40625 L -297.25 -288.296875 L -235 -257.171875 C -236.550781 -255.359375 -238.425781 -252.632812 -240.625 -249 C -242.832031 -245.363281 -245.75 -238.097656 -249.375 -227.203125 C -253.007812 -216.316406 -254.828125 -205.296875 -254.828125 -194.140625 C -254.828125 -176.503906 -251.972656 -160.679688 -246.265625 -146.671875 C -240.566406 -132.671875 -233.046875 -121.582031 -223.703125 -113.40625 C -214.367188 -105.238281 -204.316406 -99.015625 -193.546875 -94.734375 C -182.785156 -90.453125 -171.832031 -88.3125 -160.6875 -88.3125 C -136.300781 -88.3125 -114.445312 -97.453125 -95.125 -115.734375 C -75.800781 -134.023438 -66.140625 -160.160156 -66.140625 -194.140625 Z M -66.140625 -194.140625 "/></g></g></g><g fill="#ffffff" fill-opacity="1"><g transform="translate(590.042911, 848.197707)"><g><path d="M 320.96875 23.34375 L 320.96875 116.328125 C 320.96875 160.941406 305.726562 199.066406 275.25 230.703125 C 244.78125 262.347656 206.59375 278.171875 160.6875 278.171875 C 114.507812 278.171875 76.179688 262.414062 45.703125 230.90625 C 15.234375 199.394531 0 161.203125 0 116.328125 L 0 23.34375 Z M 65.359375 96.484375 L 65.359375 107.765625 C 65.359375 134.484375 74.367188 156.335938 92.390625 173.328125 C 110.421875 190.316406 133.054688 198.941406 160.296875 199.203125 C 187.523438 199.203125 210.21875 190.707031 228.375 173.71875 C 246.53125 156.726562 255.609375 134.742188 255.609375 107.765625 L 255.609375 96.484375 Z M 65.359375 96.484375 "/></g></g></g><g clip-path="url(#b56cbf5a09)"><g clip-path="url(#bb72740270)"><g transform="matrix(1, 0, 0, 1, 570, 696)"><g clip-path="url(#0f1e008a28)"><g clip-path="url(#4534600872)"><g clip-path="url(#b8402671c5)"><path fill="#ffffff" d="M 0.519531 0.300781 L 47.492188 0.300781 L 47.492188 47.277344 L 0.519531 47.277344 Z M 0.519531 0.300781 " fill-opacity="1" fill-rule="nonzero"/></g></g></g></g></g></g><g clip-path="url(#0d3c16872b)"><g clip-path="url(#c2ec64743e)"><g transform="matrix(1, 0, 0, 1, 878, 696)"><g clip-path="url(#53ce0e596f)"><g clip-path="url(#18d5cf424b)"><g clip-path="url(#ca16dcbe92)"><path fill="#ffffff" d="M 0.769531 0.300781 L 47.742188 0.300781 L 47.742188 47.277344 L 0.769531 47.277344 Z M 0.769531 0.300781 " fill-opacity="1" fill-rule="nonzero"/></g></g></g></g></g></g><g fill="#ffffff" fill-opacity="1"><g transform="translate(564.105993, 716.857829)"><g><path d="M 288.6875 0 L 273.515625 -190.25 L 271.5625 -190.25 L 205.8125 -1.9375 L 162.234375 -1.9375 L 96.484375 -190.25 L 94.546875 -190.25 L 79.375 0 L 6.21875 0 L 35.015625 -320.96875 L 112.828125 -320.96875 L 184.03125 -135.78125 L 255.21875 -320.96875 L 333.03125 -320.96875 L 361.828125 0 Z M 288.6875 0 "/></g></g></g><g clip-path="url(#a3c6e8a020)"><g clip-path="url(#ccfcda289b)"><g transform="matrix(1, 0, 0, 1, 634, 653)"><g clip-path="url(#357d2defbc)"><g clip-path="url(#6b2ed4f8a0)"><g clip-path="url(#a4d1986bd5)"><path fill="#ffffff" d="M 0.269531 0.988281 L 47.242188 0.988281 L 47.242188 47.964844 L 0.269531 47.964844 Z M 0.269531 0.988281 " fill-opacity="1" fill-rule="nonzero"/></g></g></g></g></g></g><g clip-path="url(#68ecc48107)"><g clip-path="url(#ac5ab5843e)"><g transform="matrix(1, 0, 0, 1, 818, 653)"><g clip-path="url(#3abc3d4d80)"><g clip-path="url(#16540bc393)"><g clip-path="url(#23e7d69e76)"><path fill="#ffffff" d="M 0.769531 0.988281 L 47.742188 0.988281 L 47.742188 47.964844 L 0.769531 47.964844 Z M 0.769531 0.988281 " fill-opacity="1" fill-rule="nonzero"/></g></g></g></g></g></g><g clip-path="url(#3446ad0e63)"><g clip-path="url(#e85f4578b6)"><g transform="matrix(1, 0, 0, 1, 589, 848)"><g clip-path="url(#13571922fa)"><g clip-path="url(#fe49d4b5bd)"><g clip-path="url(#44e81626cb)"><path fill="#ffffff" d="M 0.109375 0.203125 L 47.082031 0.203125 L 47.082031 47.175781 L 0.109375 47.175781 Z M 0.109375 0.203125 " fill-opacity="1" fill-rule="nonzero"/></g></g></g></g></g></g><g clip-path="url(#85a1a5754a)"><g clip-path="url(#1368c2676c)"><g transform="matrix(1, 0, 0, 1, 863, 848)"><g clip-path="url(#88d38fcfbc)"><g clip-path="url(#37dece58e4)"><g clip-path="url(#489b3e4924)"><path fill="#ffffff" d="M 0.492188 0.203125 L 47.46875 0.203125 L 47.46875 47.175781 L 0.492188 47.175781 Z M 0.492188 0.203125 " fill-opacity="1" fill-rule="nonzero"/></g></g></g></g></g></g><g clip-path="url(#44f6f77bcb)"><g clip-path="url(#9c480710c9)"><g transform="matrix(1, 0, 0, 1, 724, 682)"><g clip-path="url(#8f97ddbfc8)"><g clip-path="url(#9748f5d40e)"><g clip-path="url(#a298b35146)"><path fill="#ffffff" d="M 0.644531 0.726562 L 47.617188 0.726562 L 47.617188 47.703125 L 0.644531 47.703125 Z M 0.644531 0.726562 " fill-opacity="1" fill-rule="nonzero"/></g></g></g></g></g></g><g clip-path="url(#863b12fe85)"><g clip-path="url(#6a7882f60a)"><g transform="matrix(1, 0, 0, 1, 599, 364)"><g clip-path="url(#e759464216)"><g clip-path="url(#bfc9b23006)"><g clip-path="url(#463d3f6708)"><path fill="#ffffff" d="M 0.191406 0.671875 L 78.710938 0.671875 L 78.710938 79.191406 L 0.191406 79.191406 Z M 0.191406 0.671875 " fill-opacity="1" fill-rule="nonzero"/></g></g></g></g></g></g><g clip-path="url(#1426350578)"><g clip-path="url(#b9df9c5abe)"><g transform="matrix(1, 0, 0, 1, 819, 364)"><g clip-path="url(#99ebc9c675)"><g clip-path="url(#ae19711d49)"><g clip-path="url(#d3b015cf37)"><path fill="#ffffff" d="M 0.347656 0.671875 L 78.867188 0.671875 L 78.867188 79.191406 L 0.347656 79.191406 Z M 0.347656 0.671875 " fill-opacity="1" fill-rule="nonzero"/></g></g></g></g></g></g><g clip-path="url(#65b4de7943)"><g clip-path="url(#a58ea9b66a)"><g transform="matrix(1, 0, 0, 1, 683, 730)"><g clip-path="url(#f36968cbd5)"><g clip-path="url(#08dd26c6a9)"><g clip-path="url(#57914f9ca0)"><path fill="#ffffff" d="M 0.429688 0.882812 L 26.691406 0.882812 L 26.691406 49.402344 L 0.429688 49.402344 Z M 0.429688 0.882812 " fill-opacity="1" fill-rule="nonzero"/></g></g></g></g></g></g><g clip-path="url(#e29d3e0a77)"><g clip-path="url(#a5e281e971)"><g transform="matrix(1, 0, 0, 1, 786, 730)"><g clip-path="url(#3d2f04332e)"><g clip-path="url(#e047c1f80b)"><g clip-path="url(#b10e53209f)"><path fill="#ffffff" d="M 0.574219 0.882812 L 26.832031 0.882812 L 26.832031 49.402344 L 0.574219 49.402344 Z M 0.574219 0.882812 " fill-opacity="1" fill-rule="nonzero"/></g></g></g></g></g></g></svg>